<svg width="126" height="20" viewBox="0 0 126 20" fill="none" xmlns="http://www.w3.org/2000/svg">
<path d="M6.584 19.168C5.352 19.168 4.248 18.968 3.272 18.568C2.296 18.168 1.512 17.576 0.92 16.792C0.344 16.008 0.0400001 15.064 0.00800008 13.96H4.376C4.44 14.584 4.656 15.064 5.024 15.4C5.392 15.72 5.872 15.88 6.464 15.88C7.072 15.88 7.552 15.744 7.904 15.472C8.256 15.184 8.432 14.792 8.432 14.296C8.432 13.88 8.288 13.536 8 13.264C7.728 12.992 7.384 12.768 6.968 12.592C6.568 12.416 5.992 12.216 5.24 11.992C4.152 11.656 3.264 11.32 2.576 10.984C1.888 10.648 1.296 10.152 0.8 9.496C0.304 8.84 0.0560001 7.984 0.0560001 6.928C0.0560001 5.36 0.624 4.136 1.76 3.256C2.896 2.36 4.376 1.912 6.2 1.912C8.056 1.912 9.552 2.36 10.688 3.256C11.824 4.136 12.432 5.368 12.512 6.952H8.072C8.04 6.408 7.84 5.984 7.472 5.68C7.104 5.36 6.632 5.2 6.056 5.2C5.56 5.2 5.16 5.336 4.856 5.608C4.552 5.864 4.4 6.24 4.4 6.736C4.4 7.28 4.656 7.704 5.168 8.008C5.68 8.312 6.48 8.64 7.568 8.992C8.656 9.36 9.536 9.712 10.208 10.048C10.896 10.384 11.488 10.872 11.984 11.512C12.48 12.152 12.728 12.976 12.728 13.984C12.728 14.944 12.48 15.816 11.984 16.6C11.504 17.384 10.8 18.008 9.872 18.472C8.944 18.936 7.848 19.168 6.584 19.168ZM21.3496 19.192C20.0376 19.192 18.8536 18.912 17.7976 18.352C16.7576 17.792 15.9336 16.992 15.3256 15.952C14.7336 14.912 14.4376 13.696 14.4376 12.304C14.4376 10.928 14.7416 9.72 15.3496 8.68C15.9576 7.624 16.7896 6.816 17.8456 6.256C18.9016 5.696 20.0856 5.416 21.3976 5.416C22.7096 5.416 23.8936 5.696 24.9496 6.256C26.0056 6.816 26.8376 7.624 27.4456 8.68C28.0536 9.72 28.3576 10.928 28.3576 12.304C28.3576 13.68 28.0456 14.896 27.4216 15.952C26.8136 16.992 25.9736 17.792 24.9016 18.352C23.8456 18.912 22.6616 19.192 21.3496 19.192ZM21.3496 15.64C22.1336 15.64 22.7976 15.352 23.3416 14.776C23.9016 14.2 24.1816 13.376 24.1816 12.304C24.1816 11.232 23.9096 10.408 23.3656 9.832C22.8376 9.256 22.1816 8.968 21.3976 8.968C20.5976 8.968 19.9336 9.256 19.4056 9.832C18.8776 10.392 18.6136 11.216 18.6136 12.304C18.6136 13.376 18.8696 14.2 19.3816 14.776C19.9096 15.352 20.5656 15.64 21.3496 15.64ZM37.2549 9.016H35.0469V19H30.9429V9.016H29.4549V5.608H30.9429V5.224C30.9429 3.576 31.4149 2.328 32.3589 1.48C33.3029 0.615999 34.6869 0.183999 36.5109 0.183999C36.8149 0.183999 37.0389 0.191999 37.1829 0.207999V3.688C36.3989 3.64 35.8469 3.752 35.5269 4.024C35.2069 4.296 35.0469 4.784 35.0469 5.488V5.608H37.2549V9.016ZM46.6473 15.52V19H44.5593C43.0713 19 41.9113 18.64 41.0793 17.92C40.2473 17.184 39.8313 15.992 39.8313 14.344V9.016H38.1993V5.608H39.8313V2.344H43.9353V5.608H46.6233V9.016H43.9353V14.392C43.9353 14.792 44.0313 15.08 44.2233 15.256C44.4153 15.432 44.7353 15.52 45.1833 15.52H46.6473ZM48.1173 12.28C48.1173 10.904 48.3733 9.696 48.8853 8.656C49.4133 7.616 50.1253 6.816 51.0213 6.256C51.9173 5.696 52.9173 5.416 54.0213 5.416C54.9013 5.416 55.7013 5.6 56.4213 5.968C57.1573 6.336 57.7333 6.832 58.1493 7.456V1.24H62.2533V19H58.1493V17.08C57.7653 17.72 57.2133 18.232 56.4933 18.616C55.7893 19 54.9653 19.192 54.0213 19.192C52.9173 19.192 51.9173 18.912 51.0213 18.352C50.1253 17.776 49.4133 16.968 48.8853 15.928C48.3733 14.872 48.1173 13.656 48.1173 12.28ZM58.1493 12.304C58.1493 11.28 57.8613 10.472 57.2853 9.88C56.7253 9.288 56.0373 8.992 55.2213 8.992C54.4053 8.992 53.7093 9.288 53.1333 9.88C52.5733 10.456 52.2933 11.256 52.2933 12.28C52.2933 13.304 52.5733 14.12 53.1333 14.728C53.7093 15.32 54.4053 15.616 55.2213 15.616C56.0373 15.616 56.7253 15.32 57.2853 14.728C57.8613 14.136 58.1493 13.328 58.1493 12.304ZM78.4464 5.608V19H74.3424V17.176C73.9264 17.768 73.3584 18.248 72.6384 18.616C71.9344 18.968 71.1504 19.144 70.2864 19.144C69.2624 19.144 68.3584 18.92 67.5744 18.472C66.7904 18.008 66.1824 17.344 65.7504 16.48C65.3184 15.616 65.1024 14.6 65.1024 13.432V5.608H69.1824V12.88C69.1824 13.776 69.4144 14.472 69.8784 14.968C70.3424 15.464 70.9664 15.712 71.7504 15.712C72.5504 15.712 73.1824 15.464 73.6464 14.968C74.1104 14.472 74.3424 13.776 74.3424 12.88V5.608H78.4464ZM85.4983 1.24V19H81.3943V1.24H85.4983ZM101.696 5.608V19H97.5924V17.176C97.1764 17.768 96.6084 18.248 95.8884 18.616C95.1844 18.968 94.4004 19.144 93.5364 19.144C92.5124 19.144 91.6084 18.92 90.8244 18.472C90.0404 18.008 89.4324 17.344 89.0004 16.48C88.5684 15.616 88.3524 14.6 88.3524 13.432V5.608H92.4324V12.88C92.4324 13.776 92.6644 14.472 93.1284 14.968C93.5924 15.464 94.2164 15.712 95.0004 15.712C95.8004 15.712 96.4324 15.464 96.8964 14.968C97.3604 14.472 97.5924 13.776 97.5924 12.88V5.608H101.696ZM108.748 7.84C109.228 7.104 109.828 6.528 110.548 6.112C111.268 5.68 112.068 5.464 112.948 5.464V9.808H111.82C110.796 9.808 110.028 10.032 109.516 10.48C109.004 10.912 108.748 11.68 108.748 12.784V19H104.644V5.608H108.748V7.84Z" fill="white"/>
<path d="M122.348 19.192C121.42 19.192 120.676 18.944 120.116 18.448C119.556 17.952 119.276 17.328 119.276 16.576C119.276 15.808 119.556 15.176 120.116 14.68C120.676 14.168 121.42 13.912 122.348 13.912C123.26 13.912 123.996 14.168 124.556 14.68C125.116 15.176 125.396 15.808 125.396 16.576C125.396 17.328 125.116 17.952 124.556 18.448C123.996 18.944 123.26 19.192 122.348 19.192Z" fill="#83B9E6"/>
</svg>
